# xmcd
#
# Track frame offsets:
#	150
#	19793
#	37927
#	61892
#	79883
#	99024
#	119783
#	138648
#	154118
#	169840
#
# Disc length: 2470 seconds
#
# Revision: 1
# Processed by: cddbd v1.5.2PL0 Copyright (c) Steve Scherf et al.
# Submitted via: EasyCDDAExtractor 9.1.3.1
#
DISCID=7c09a40a
DTITLE=Ronnie Milsap - One More Try For Love
DYEAR=1984
DGENRE=Country
TTITLE0=One More Try For Love
TTITLE1=She Loves My Car
TTITLE2=Still Losing You
TTITLE3=Suburbia
TTITLE4=Prisoner Of The Highway
TTITLE5=She's Always In Love
TTITLE6=I Might Have Said
TTITLE7=I Guess I Just Missed You
TTITLE8=I'll Take Care Of You
TTITLE9=Night By Night
EXTD=
EXTT0=
EXTT1=
EXTT2=
EXTT3=
EXTT4=
EXTT5=
EXTT6=
EXTT7=
EXTT8=
EXTT9=
PLAYORDER=
